<?xml version="1.0" encoding="iso-8859-1"?>
<!-- Generator: Adobe Illustrator 19.0.0, SVG Export Plug-In . SVG Version: 6.00 Build 0)  -->
<svg version="1.1" id="Capa_1" xmlns="http://www.w3.org/2000/svg" xmlns:xlink="http://www.w3.org/1999/xlink" x="0px" y="0px"
	 viewBox="0 0 512.001 512.001" style="enable-background:new 0 0 512.001 512.001;" xml:space="preserve">
<g>
	<path style="fill:#94A8BA;" d="M142.397,59.539c-13.977-14.731-33.743-23.921-55.66-23.921c-42.383,0-76.73,34.347-76.73,76.73
		c0,42.373,34.346,76.719,76.73,76.719c17.373,0,33.404-5.781,46.267-15.518l46.902,39.621l45.143-15.119l25.114-35.255
		C250.163,162.796,143.505,60.708,142.397,59.539z M86.733,143.035c-16.95,0-30.691-13.741-30.691-30.691s13.741-30.69,30.691-30.69
		s30.691,13.741,30.691,30.691S103.683,143.035,86.733,143.035z"/>
	<polygon style="fill:#94A8BA;" points="310.202,220.274 501.994,373.715 501.994,374.74 409.746,374.74 249.036,276.254 
		270.667,231.901 	"/>
</g>
<path style="fill:#CFD9DD;" d="M409.746,66.367l-154.58,92.386l-136.473,98.674c0,0-14.584-6.956-31.958-6.956
	c-42.383,0-76.73,34.346-76.73,76.73c0,42.373,34.346,76.719,76.73,76.719c22.029,0,41.893-9.289,55.885-24.161
	c0.065-0.069,147.568-143.532,147.568-143.532L501.994,67.392v-1.025H409.746z M86.736,357.89
	c-16.953,0-30.698-13.745-30.698-30.688c0-16.953,13.745-30.698,30.698-30.698c16.943,0,30.688,13.745,30.688,30.698
	C117.423,344.145,103.678,357.89,86.736,357.89z"/>
<path style="fill:#94A8BA;" d="M155.116,367.605v42.736c0,37.767-30.616,66.043-68.382,66.043c-28.588,0-28.588-40.026,0-40.026
	c15.661,0,28.356-12.695,28.356-28.356v-9.433"/>
<g>
	<path style="fill:#FF5A6A;" d="M86.733,250.47c-42.376,0-76.727,34.352-76.727,76.727s34.351,76.727,76.727,76.727
		c42.375,0,76.727-34.351,76.727-76.727S129.108,250.47,86.733,250.47z M86.736,357.89c-16.953,0-30.698-13.745-30.698-30.688
		c0-16.953,13.745-30.698,30.698-30.698c16.943,0,30.688,13.745,30.688,30.698C117.423,344.145,103.678,357.89,86.736,357.89z"/>
	<path style="fill:#FF5A6A;" d="M86.733,35.618c-42.376,0-76.727,34.351-76.727,76.726s34.351,76.727,76.727,76.727
		c42.375,0,76.727-34.351,76.727-76.727C163.459,69.97,129.108,35.618,86.733,35.618z M86.733,143.035
		c-16.95,0-30.691-13.741-30.691-30.691s13.741-30.69,30.691-30.69s30.691,13.741,30.691,30.691S103.683,143.035,86.733,143.035z"/>
</g>
<path d="M127.43,112.344c0-22.441-18.257-40.696-40.696-40.696s-40.697,18.257-40.697,40.696s18.257,40.697,40.697,40.697
	S127.43,134.785,127.43,112.344z M86.733,133.029c-11.405,0-20.684-9.279-20.684-20.684c0-11.404,9.279-20.683,20.684-20.683
	c11.404,0,20.683,9.279,20.683,20.683C107.417,123.75,98.138,133.029,86.733,133.029z"/>
<path d="M86.736,286.497c-22.445,0-40.704,18.26-40.704,40.704c0,22.439,18.26,40.694,40.704,40.694
	c22.439,0,40.693-18.256,40.693-40.694C127.43,304.757,109.175,286.497,86.736,286.497z M86.736,347.883
	c-11.409,0-20.691-9.277-20.691-20.681c0-11.409,9.282-20.691,20.691-20.691c11.403,0,20.68,9.282,20.68,20.691
	C107.417,338.605,98.14,347.883,86.736,347.883z"/>
<path d="M250.043,217.625c-0.25-0.61-0.56-1.191-0.921-1.731c-0.37-0.55-0.791-1.061-1.251-1.521
	c-2.322-2.322-5.774-3.392-9.026-2.732c-0.64,0.13-1.271,0.32-1.871,0.57c-0.61,0.25-1.191,0.56-1.731,0.921
	c-0.55,0.36-1.061,0.781-1.521,1.241c-0.46,0.46-0.881,0.971-1.241,1.521c-0.36,0.54-0.67,1.121-0.921,1.731
	c-0.25,0.6-0.44,1.231-0.57,1.871c-0.13,0.64-0.2,1.301-0.2,1.951c0,2.642,1.071,5.213,2.932,7.075
	c0.46,0.46,0.971,0.881,1.521,1.251c0.54,0.36,1.121,0.67,1.731,0.921c0.6,0.25,1.231,0.44,1.871,0.57
	c0.64,0.13,1.301,0.19,1.951,0.19s1.311-0.06,1.961-0.19c0.63-0.13,1.261-0.32,1.871-0.57c0.6-0.25,1.181-0.56,1.721-0.921
	c0.55-0.37,1.061-0.791,1.521-1.251c0.46-0.46,0.881-0.971,1.251-1.521c0.36-0.54,0.67-1.121,0.921-1.721
	c0.25-0.61,0.44-1.241,0.57-1.871c0.13-0.65,0.19-1.301,0.19-1.961c0-0.65-0.06-1.311-0.19-1.951
	C250.483,218.855,250.293,218.225,250.043,217.625z"/>
<path d="M165.338,291.943c-0.25-0.61-0.56-1.191-0.921-1.731c-0.36-0.55-0.781-1.061-1.241-1.521
	c-0.46-0.46-0.971-0.881-1.521-1.241c-0.54-0.36-1.121-0.67-1.721-0.921c-0.61-0.25-1.241-0.45-1.881-0.57
	c-1.281-0.26-2.612-0.26-3.903,0c-0.64,0.12-1.271,0.32-1.871,0.57c-0.61,0.25-1.191,0.56-1.731,0.921
	c-0.55,0.36-1.061,0.781-1.521,1.241c-0.46,0.46-0.881,0.971-1.241,1.521c-0.36,0.54-0.67,1.121-0.921,1.731
	c-0.25,0.6-0.44,1.231-0.57,1.871c-0.13,0.64-0.2,1.301-0.2,1.951c0,0.65,0.07,1.311,0.2,1.951c0.13,0.64,0.32,1.271,0.57,1.871
	c0.25,0.61,0.56,1.191,0.921,1.731c0.36,0.55,0.781,1.061,1.241,1.521c0.46,0.46,0.971,0.881,1.521,1.241
	c0.54,0.36,1.121,0.67,1.731,0.921c0.6,0.25,1.231,0.45,1.871,0.58c0.64,0.13,1.301,0.19,1.951,0.19c0.65,0,1.311-0.06,1.951-0.19
	c0.64-0.13,1.271-0.33,1.881-0.58c0.6-0.25,1.181-0.56,1.721-0.921c0.55-0.36,1.061-0.78,1.521-1.241s0.881-0.971,1.241-1.521
	c0.36-0.54,0.67-1.121,0.921-1.731c0.25-0.6,0.45-1.231,0.57-1.871c0.13-0.64,0.2-1.301,0.2-1.951c0-0.65-0.07-1.311-0.2-1.951
	C165.788,293.174,165.588,292.544,165.338,291.943z"/>
<path d="M512,67.392v-1.025c0-5.527-4.48-10.007-10.006-10.007h-92.248c-1.808,0-3.582,0.489-5.133,1.418l-153.715,91.87
	C213.951,114.282,152.6,55.536,149.559,52.55c-16.348-16.048-39.638-26.937-62.827-26.939C38.907,25.614,0,64.522,0,112.346
	c-0.001,61.562,69.289,104.972,124.597,78.061c2.663-1.296,5.258-2.731,7.773-4.294l31.303,26.444l-46.341,33.506
	c-2.142-0.805-4.313-1.552-6.533-2.193c-0.53-0.153-1.064-0.248-1.595-0.312c-6.208-1.652-14.027-3.092-22.47-3.092
	C38.909,240.466,0,279.376,0,327.202c0,47.821,38.909,86.725,86.736,86.725c6.045,0,12.038-0.644,17.885-1.885
	c-1.848,8.178-9.159,14.308-17.887,14.308c-20.645,0-31.447,15.102-31.447,30.02s10.802,30.02,31.447,30.02
	c43.957,0,78.389-33.405,78.389-76.049v-38.509c20.087-19.539,55.999-54.468,85.316-82.982l154.079,94.423
	c1.573,0.964,3.383,1.475,5.228,1.475h92.248c5.527,0,10.006-4.48,10.006-10.007v-1.025c0-3.04-1.382-5.915-3.755-7.814
	L326.237,220.288L508.231,75.217C510.612,73.319,512,70.438,512,67.392z M20.013,112.347c0-36.791,29.931-66.721,66.721-66.722
	c36.789,0.001,66.718,29.93,66.718,66.719c0,33.304-24.527,60.984-56.467,65.931c-0.13,0.02-0.261,0.036-0.391,0.055
	c-0.857,0.127-1.718,0.235-2.585,0.329c-0.328,0.035-0.655,0.068-0.985,0.099c-0.683,0.064-1.371,0.114-2.06,0.157
	c-0.394,0.024-0.787,0.053-1.182,0.071c-0.747,0.034-1.501,0.048-2.254,0.057c-0.264,0.003-0.527,0.016-0.792,0.016
	C49.945,179.059,20.013,149.133,20.013,112.347z M148.3,173.372c15.547-15.683,25.165-37.252,25.165-61.028
	c0-3.261-0.187-6.478-0.539-9.647c19.134,18.331,42.286,40.497,61.39,58.783l-53.932,38.995L148.3,173.372z M86.733,466.377
	c-10.883,0-11.434-8.335-11.434-10.007c0-1.671,0.551-10.007,11.434-10.007c21.154,0,38.363-17.21,38.363-38.363v-3.017
	c7.362-3.618,14.077-8.196,20.013-13.578v18.934C145.109,441.763,119.468,466.377,86.733,466.377z M474.748,364.733h-62.18
	L265.243,274.45c16.824-16.364,29.316-28.514,31.569-30.705l13.379-10.664L474.748,364.733z M283.952,228.403
	c-0.257,0.205-0.503,0.422-0.74,0.651c-54.212,52.728-88.504,86.08-110.227,107.21c0.037-0.344,0.089-0.687,0.122-1.032
	c0.517-5.503-3.523-10.382-9.026-10.9c-5.507-0.519-10.382,3.523-10.9,9.026c-0.39,4.152-1.181,8.308-2.35,12.352
	c-2.907,10.066-8.014,19.083-14.839,26.542c-0.596,0.582-0.626,0.614-0.661,0.651c-2.871,3.052-5.982,5.777-9.274,8.194
	c-4.482,3.255-9.395,6-14.696,8.11c-0.189,0.075-0.366,0.165-0.547,0.25c-7.562,2.919-15.682,4.456-24.08,4.456
	c-36.791,0-66.723-29.927-66.723-66.712c0-36.791,29.932-66.722,66.723-66.722c11.512,0,21.837,3.615,25.862,5.223
	c5.921,2.478,11.422,5.764,16.409,9.849c1.86,1.524,4.106,2.267,6.336,2.267c2.896,0,5.768-1.251,7.746-3.665
	c3.502-4.275,2.877-10.58-1.398-14.082c-1.519-1.245-3.086-2.412-4.675-3.543l48.901-35.357c0.002-0.001,0.003-0.002,0.005-0.003
	l74.754-54.049l151.834-90.746h62.164L283.952,228.403z"/>
<g>
</g>
<g>
</g>
<g>
</g>
<g>
</g>
<g>
</g>
<g>
</g>
<g>
</g>
<g>
</g>
<g>
</g>
<g>
</g>
<g>
</g>
<g>
</g>
<g>
</g>
<g>
</g>
<g>
</g>
</svg>
